# Monitor model OBJ
mtllib monitor_model.mtl
v -0.600000 -0.700000 0.150000
v 0.600000 -0.700000 0.150000
v 0.600000 0.700000 0.150000
v -0.600000 0.700000 0.150000
v -0.600000 -0.700000 -0.150000
v 0.600000 -0.700000 -0.150000
v 0.600000 0.700000 -0.150000
v -0.600000 0.700000 -0.150000
v -0.520000 -0.450000 0.138000
v 0.520000 -0.450000 0.138000
v 0.520000 0.610000 0.138000
v -0.520000 0.610000 0.138000
v 0.500000 -0.480000 0.151000
v 0.493910 -0.449385 0.151000
v 0.476569 -0.423431 0.151000
v 0.450615 -0.406090 0.151000
v 0.420000 -0.400000 0.151000
v 0.389385 -0.406090 0.151000
v 0.363431 -0.423431 0.151000
v 0.346090 -0.449385 0.151000
v 0.340000 -0.480000 0.151000
v 0.346090 -0.510615 0.151000
v 0.363431 -0.536569 0.151000
v 0.389385 -0.553910 0.151000
v 0.420000 -0.560000 0.151000
v 0.450615 -0.553910 0.151000
v 0.476569 -0.536569 0.151000
v 0.493910 -0.510615 0.151000
v 0.420000 -0.480000 0.151000

# UVs
vt 0.0 0.0
vt 1.0 0.0
vt 1.0 1.0
vt 0.0 1.0
vt 1.000000 0.500000
vt 0.961940 0.691342
vt 0.853553 0.853553
vt 0.691342 0.961940
vt 0.500000 1.000000
vt 0.308658 0.961940
vt 0.146447 0.853553
vt 0.038060 0.691342
vt 0.000000 0.500000
vt 0.038060 0.308658
vt 0.146447 0.146447
vt 0.308658 0.038060
vt 0.500000 0.000000
vt 0.691342 0.038060
vt 0.853553 0.146447
vt 0.961940 0.308658
vt 0.5 0.5

# Normals
vn 0.000000 0.000000 1.000000
vn 0.000000 0.000000 -1.000000
vn 0.000000 1.000000 0.000000
vn 0.000000 -1.000000 0.000000
vn -1.000000 0.000000 0.000000
vn 1.000000 0.000000 0.000000

# Objects
o monitor_body
usemtl metal_mat
f 1/1/1 2/2/1 3/3/1 4/4/1
f 8 7 6 5
f 4 3 7 8
f 1 5 6 2
f 2 6 7 3
f 5 1 4 8

o screen_plane
usemtl screen_mat
f 9/1/1 10/2/1 11/3/1 12/4/1

o button
usemtl screen_button
f 13/5/1 14/6/1 29/21/1
f 14/6/1 15/7/1 29/21/1
f 15/7/1 16/8/1 29/21/1
f 16/8/1 17/9/1 29/21/1
f 17/9/1 18/10/1 29/21/1
f 18/10/1 19/11/1 29/21/1
f 19/11/1 20/12/1 29/21/1
f 20/12/1 21/13/1 29/21/1
f 21/13/1 22/14/1 29/21/1
f 22/14/1 23/15/1 29/21/1
f 23/15/1 24/16/1 29/21/1
f 24/16/1 25/17/1 29/21/1
f 25/17/1 26/18/1 29/21/1
f 26/18/1 27/19/1 29/21/1
f 27/19/1 28/20/1 29/21/1
f 28/20/1 13/5/1 29/21/1
