# File generated by ImageToStl.com - Free Image and 3D model conversion tools

mtllib 3-10-2025.mtl

o obj1
v 0.0013885 0.009714 0.31256026
v -0.00033856 0.0096145 0.3156212
v 0.00124075 0.01474373 0.31445199
v -0.00125573 -0.00878794 0.31603375
v 0.00191733 -0.01221702 0.31244412
v 0.00156894 -0.01440321 0.31460762
v 0.49720827 0.02833719 -0.36552313
v 0.49994114 0.02873269 -0.36143985
v 0.49853444 -0.02519637 -0.36427656
v 0.50069606 -0.02285879 -0.35655886
v 0.50069606 -0.02285879 -0.35655886
v 0.49892074 -0.02499599 -0.34295425
v 0.49853444 -0.02519637 -0.36427656
v 0.49994114 0.02873269 -0.36143985
v 0.49989715 0.02701538 -0.34576547
v 0.50069606 -0.02285879 -0.35655886
v 0.49842593 0.02830513 -0.34076267
v 0.49892074 -0.02499599 -0.34295425
v 0.48916295 0.00468472 -0.3691515
v 0.49720827 0.02833719 -0.36552313
v 0.48652679 0.02839167 -0.36969155
v 0.49994114 0.02873269 -0.36143985
v 0.48895177 0.02791672 -0.32147497
v 0.48719057 -0.02465579 -0.31815648
v 0.48895177 0.02791672 -0.32147497
v 0.49842593 0.02830513 -0.34076267
v 0.4770349 0.02799588 -0.35998338
v 0.48011512 0.02777325 -0.30675632
v 0.47800887 -0.02468465 -0.30346224
v 0.45447508 0.00376905 -0.27107751
v 0.44494885 0.02762441 -0.32460797
v 0.45428687 -0.02442485 -0.27164888
v 0.42103535 0.02791399 -0.26459131
v 0.48011512 0.02777325 -0.30675632
v 0.45235547 0.02785775 -0.26957548
v 0.45235547 0.02785775 -0.26957548
v 0.43820596 -0.02432067 -0.25032371
v 0.43010345 0.01495111 -0.23974141
v 0.42963314 0.02750694 -0.23965217
v 0.41703391 0.02750627 -0.29165468
v 0.42963314 0.02750694 -0.23965217
v 0.42487705 -0.02452816 -0.23288794
v 0.40504697 -0.00603195 -0.20477021
v 0.40234143 0.02726704 -0.20145138
v 0.39792556 0.02747671 -0.26585069
v 0.39898962 -0.02458768 -0.19744086
v 0.38316718 0.02740036 -0.24433893
v 0.38286901 0.02737313 -0.17614259
v 0.40234143 0.02726704 -0.20145138
v 0.367048 0.02782349 -0.18736608
v 0.38350406 -0.02456383 -0.17721631
v 0.37288401 0.02747681 -0.22714224
v 0.38286901 0.02737313 -0.17614259
v 0.36678338 -0.01028781 -0.15671283
v 0.35045752 0.02753812 -0.19393536
v 0.3497715 -0.02377658 -0.13715869
v 0.35751438 0.02731038 -0.14677717
v 0.35751438 0.02731038 -0.14677717
v 0.34479749 0.01287599 -0.13146943
v 0.31467471 0.02743202 -0.11663159
v 0.32777604 0.02723637 -0.11289541
v 0.33130491 0.02763289 -0.16864422
v 0.32468987 0.02770261 -0.15830675
v 0.32777604 0.02723637 -0.11289541
v 0.32570007 0.027251 -0.16238272
v 0.32279751 0.02724765 -0.16120699
v 0.31192049 0.02715376 -0.09520416
v 0.29430538 -0.01553608 -0.07674482
v 0.32812342 -0.02410555 -0.11414955
v 0.30355728 -0.02425758 -0.08728124
v 0.28911763 0.02714023 -0.14789717
v 0.30150223 0.02723905 -0.16810565
v 0.31192049 0.02715376 -0.09520416
v 0.30153307 0.00108656 -0.16857399
v 0.30250594 0.02548267 -0.16821077
v 0.30142939 -0.02398074 -0.16926657
v 0.27468666 0.02729812 -0.12381818
v 0.28067732 0.02725849 -0.06228686
v 0.28067732 0.02725849 -0.06228686
v 0.27783877 -0.02341609 -0.05954998
v 0.23185961 0.02721475 -0.07387281
v 0.255261 -0.00922314 -0.03812504
v 0.25718266 -0.0238766 -0.04068495
v 0.24973415 0.02720468 -0.09480193
v 0.25080508 0.02705059 -0.03418
v 0.25080508 0.02705059 -0.03418
v 0.23931825 -0.02385449 -0.02233493
v 0.21770507 0.02702633 0.00081792
v 0.21980962 -0.02390166 -0.00146674
v 0.21770507 0.02702633 0.00081792
v 0.218871 0.02713688 -0.06061474
v 0.19468701 0.02697229 0.02399691
v 0.19561547 -0.02396636 0.02243008
v 0.19468701 0.02697229 0.02399691
v 0.20155197 0.02707986 -0.04430304
v 0.18329976 0.02695533 -0.02483921
v 0.14376391 0.02710635 0.03322383
v 0.16509821 0.02687207 -0.00596718
v 0.17658387 0.02680323 0.04368627
v 0.17658387 0.02680323 0.04368627
v 0.17972153 -0.02372355 0.03969888
v 0.1589067 0.02683375 0.0641947
v 0.1589067 0.02683375 0.0641947
v 0.15678124 -0.02384652 0.06647538
v 0.14602244 0.02696287 0.01394842
v 0.13798289 0.01812426 0.08931185
v 0.14333725 0.02666744 0.08292111
v 0.13821465 -0.02398889 0.08920569
v 0.13753103 0.02648249 0.08981194
v 0.12418337 0.02682864 0.0374716
v 0.11439178 0.0265601 0.06676049
v 0.14333725 0.02666744 0.08292111
v 0.12906754 0.02649966 0.080311
v 0.13753103 0.02648249 0.08981194
v 0.13798289 0.01812426 0.08931185
v 0.13626744 -0.02416352 0.0883409
v 0.13821465 -0.02398889 0.08920569
v 0.12906754 0.02649966 0.080311
v 0.10436893 0.02691524 0.05751706
v 0.10388174 0.0270186 0.05955862
v 0.10996135 0.027523 -0.06339733
v 0.10963725 0.00845244 -0.06380846
v 0.10526199 -0.02457161 -0.10129867
v 0.10976 -0.02437612 -0.06410897
v 0.11439178 0.0265601 0.06676049
v 0.10388174 0.0270186 0.05955862
v 0.11398776 -0.02411155 0.06644201
v 0.1037562 -0.02446497 0.05961318
v 0.10269395 0.02744704 -0.11887782
v 0.09865689 -0.02443533 -0.14347334
v 0.10963725 0.00845244 -0.06380846
v 0.09424177 -0.02429619 -0.05374442
v 0.10976 -0.02437612 -0.06410897
v 0.10665399 0.02700095 0.20887057
v 0.0867099 0.02660607 0.25750819
v 0.11688091 0.02684711 0.21736552
v 0.11688091 0.02684711 0.21736552
v 0.08405447 0.00272391 0.26163697
v 0.11730035 -0.00718542 0.21715254
v 0.0867099 0.02660607 0.25750819
v 0.11723907 -0.02478164 0.21717009
v 0.09603287 0.0275999 -0.1602359
v 0.09506264 -0.00912788 -0.16672564
v 0.10996135 0.027523 -0.06339733
v 0.0941594 0.02763797 -0.05293646
v 0.09192003 -0.02456402 0.25047424
v 0.09103437 0.02740726 -0.19036533
v 0.08812667 0.02011443 -0.20506303
v 0.09049333 -0.0246138 -0.19229539
v 0.10269395 0.02744704 -0.11887782
v 0.09603287 0.0275999 -0.1602359
v 0.0941594 0.02763797 -0.05293646
v 0.10996135 0.027523 -0.06339733
v 0.0803531 0.02448038 -0.04357426
v 0.0841646 0.02712337 0.18724854
v 0.10665399 0.02700095 0.20887057
v 0.0978205 -0.02467577 0.19956006
v 0.05592148 0.02771446 -0.15003964
v 0.08004168 0.02734724 -0.04355304
v 0.07999367 -0.02447417 -0.04309773
v 0.08507646 0.0274914 -0.22116677
v 0.08394668 -0.02449809 -0.22748773
v 0.09103437 0.02740726 -0.19036533
v 0.08507646 0.0274914 -0.22116677
v 0.06990162 0.02704192 0.21228988
v 0.07828947 0.02752982 -0.25248542
v 0.06893873 0.02759245 -0.08641735
v 0.07503948 0.02756402 -0.05968489
v 0.08004168 0.02734724 -0.04355304
v 0.0841646 0.02712337 0.18724854
v 0.04358421 0.02720871 0.25488585
v 0.06959391 -0.02478291 0.28106675
v 0.07640895 -0.02448605 -0.26265624
v 0.05818907 -0.02417563 0.2971659
v 0.0713352 0.02746073 -0.28643084
v 0.06201661 0.02750499 -0.11636628
v 0.07073202 -0.02449404 -0.28844649
v 0.06718451 0.02722632 -0.30530122
v 0.0713352 0.02746073 -0.28643084
v 0.03645319 0.0278204 -0.25996432
v 0.07828947 0.02752982 -0.25248542
v 0.06003315 0.02680072 0.29497007
v 0.06718423 -0.02439609 -0.30536255
v 0.06718451 0.02722632 -0.30530122
v 0.04399504 0.02761408 -0.30526793
v 0.04770518 0.02760995 -0.19433622
v 0.05232206 0.02761385 -0.16828305
v 0.06003315 0.02680072 0.29497007
v 0.03383301 0.02772338 -0.26221979
v 0.06201661 0.02750499 -0.11636628
v 0.05814725 -0.02465666 -0.13612659
v 0.06298439 -0.02479876 -0.11166452
v 0.04161382 0.02767188 -0.22848541
v 0.04415347 -0.02463749 0.31607902
v 0.04544788 0.02664984 0.31464931
v 0.00365086 0.02780772 -0.26185158
v 0.02892328 0.02677886 0.33554339
v 0.02892328 0.02677886 0.33554339
v 0.04544788 0.02664984 0.31464931
v 0.02467336 -0.02473487 0.34018022
v 0.03645319 0.0278204 -0.25996432
v 0.03383301 0.02772338 -0.26221979
v 0.03602316 0.00781072 -0.26077899
v 0.03602316 0.00781072 -0.26077899
v 0.03383301 0.02772338 -0.26221979
v 0.03378564 -0.02453615 -0.26227134
v 0.03553832 -0.02453428 -0.26102462
v 0.03046891 0.02724059 0.27529997
v 0.01828136 -0.02436266 -0.26169547
v 0.01136935 0.02697579 0.30126536
v 0.01067598 0.02659757 0.35672522
v 0.00365086 0.02780772 -0.26185158
v 0.00173666 0.02673466 0.36503699
v 0.01067598 0.02659757 0.35672522
v 0.00947881 -0.02469221 0.35703039
v -0.001316 0.02693064 0.31704769
v 0.00173666 0.02673466 0.36503699
v 0.00158962 -0.0246693 0.36474928
v -0.03910732 0.0276139 -0.30514821
v -0.03452229 0.02776104 -0.26184949
v -0.00847819 0.02706382 0.3055706
v -0.001316 0.02693064 0.31704769
v -0.00225412 0.02198531 0.3144621
v -0.00847819 0.02706382 0.3055706
v -0.00125573 -0.00878794 0.31603375
v -0.01275494 -0.00508682 0.29986379
v -0.00613909 -0.02488046 0.30897093
v -0.00190259 -0.02435985 0.31483176
v -0.01250208 0.02677282 0.34863335
v -0.03398942 -0.02435251 -0.26183549
v -0.02194876 0.02702143 0.2883586
v -0.01275494 -0.00508682 0.29986379
v -0.00613909 -0.02488046 0.30897093
v -0.01557539 -0.02491338 0.29689929
v -0.02957085 -0.02504667 0.27876526
v -0.03519832 0.0268022 0.31935099
v -0.01250208 0.02677282 0.34863335
v -0.03519832 0.0268022 0.31935099
v -0.01689724 -0.02475216 0.34266824
v -0.02957085 -0.02504667 0.27876526
v -0.04448036 0.0270084 0.2594237
v -0.0364526 0.02775718 -0.26063848
v -0.03611353 -0.0245552 -0.26054609
v -0.07512063 0.02759573 -0.2689006
v -0.03452229 0.02776104 -0.26184949
v -0.0364526 0.02775718 -0.26063848
v -0.0364526 0.02775718 -0.26063848
v -0.03921552 0.02774336 -0.24115409
v -0.03845309 -0.02455329 -0.24419135
v -0.03611353 -0.0245552 -0.26054609
v -0.04448681 -0.0121066 -0.21092021
v -0.05286501 -0.02503292 0.24841075
v -0.05728696 0.02787327 -0.23627703
v -0.03921552 0.02774336 -0.24115409
v -0.04649937 0.02783876 -0.20307192
v -0.04603434 -0.02463428 -0.20236176
v -0.02194876 0.02702143 0.2883586
v -0.04448036 0.0270084 0.2594237
v -0.06239689 0.02688859 0.28405249
v -0.04649937 0.02783876 -0.20307192
v -0.05197809 -0.02488862 -0.16548319
v -0.05137763 0.02778596 -0.17219315
v -0.06682879 0.0274763 -0.30565685
v -0.05619574 0.02782459 -0.14341694
v -0.05562519 -0.02486272 -0.1431368
v -0.05619574 0.02782459 -0.14341694
v -0.05137763 0.02778596 -0.17219315
v -0.06293866 0.02772968 -0.09782874
v -0.06127684 -0.01199227 -0.10595856
v -0.06164598 -0.02471565 -0.1043728
v -0.0606092 0.02667376 0.23649971
v -0.0606092 0.02667376 0.23649971
v -0.07642519 0.026893 0.24019462
v -0.09401287 0.02748561 -0.17349035
v -0.06794693 0.02772179 -0.06873387
v -0.06771529 -0.02472191 -0.07110696
v -0.07011158 0.02674743 0.22005278
v -0.064431 -0.02483924 0.23061581
v -0.08105911 0.02673665 0.26160389
v -0.04979423 -0.0246814 0.300383
v -0.06239689 0.02688859 0.28405249
v -0.07517394 -0.02461542 0.26868674
v -0.08091114 0.02745999 -0.23926514
v -0.07210366 -0.02476203 -0.04460781
v -0.07251853 0.02777053 -0.03776599
v -0.07551538 -0.02489358 0.20963211
v -0.07011158 0.02674743 0.22005278
v -0.07213045 -0.02466682 -0.28104392
v -0.07755098 -0.02443118 -0.25720543
v -0.07567684 0.01449634 -0.26544932
v -0.0868206 0.02739277 -0.21110089
v -0.06293866 0.02772968 -0.09782874
v -0.07388493 0.02769376 -0.03758683
v -0.06794693 0.02772179 -0.06873387
v -0.07251853 0.02777053 -0.03776599
v -0.07296264 -0.02491657 -0.03655449
v -0.07388493 0.02769376 -0.03758683
v -0.07542101 0.00963741 -0.03868786
v -0.07251853 0.02777053 -0.03776599
v -0.07296264 -0.02491657 -0.03655449
v -0.07871131 0.02720174 0.20144781
v -0.07643209 0.00363807 0.20608214
v -0.07871131 0.02720174 0.20144781
v -0.09445078 0.02685705 0.24754915
v -0.09228142 0.02771311 -0.07344738
v -0.0844629 0.02705878 0.1884018
v -0.08463552 -0.02486634 0.18771552
v -0.09364025 0.02730657 -0.05004344
v -0.0844629 0.02705878 0.1884018
v -0.10970031 0.02703331 0.2329538
v -0.09364025 0.02730657 -0.05004344
v -0.08693746 -0.02450641 -0.04597637
v -0.08105911 0.02673665 0.26160389
v -0.09445078 0.02685705 0.24754915
v -0.08826241 -0.02471793 0.25395879
v -0.1032756 0.02739378 -0.11994914
v -0.09927267 0.02686059 0.20426211
v -0.11133169 0.02700464 -0.06228624
v -0.11864365 0.02686425 0.22322109
v -0.11858457 -0.02463816 0.22410768
v -0.11121733 0.0074587 -0.06316408
v -0.11097119 0.02723157 -0.07225742
v -0.10970031 0.02703331 0.2329538
v -0.11134044 -0.0247207 -0.06350818
v -0.10099312 -0.02447163 -0.05603717
v -0.1046759 0.02666104 0.06005868
v -0.11108241 0.02660388 0.06479571
v -0.10469592 -0.02493093 0.06022021
v -0.11115529 -0.02464944 0.0642488
v -0.12271687 -0.00392656 0.04139537
v -0.10469592 -0.02493093 0.06022021
v -0.11372679 -0.02477352 0.05055127
v -0.12679039 0.02651703 0.07920638
v -0.12484095 -0.02396941 0.07704471
v -0.12903404 -0.02448359 0.03532831
v -0.1046759 0.02666104 0.06005868
v -0.13131373 0.02633536 0.03286168
v -0.11108241 0.02660388 0.06479571
v -0.14210127 0.02660514 0.09441909
v -0.13131373 0.02633536 0.03286168
v -0.14243315 -0.02430954 0.09464704
v -0.12679039 0.02651703 0.07920638
v -0.1584343 -0.0089857 0.00209898
v -0.14042082 -0.02450475 0.0230664
v -0.1551519 0.02630404 0.07787836
v -0.14210127 0.02660514 0.09441909
v -0.16717465 -0.02433376 -0.00736525
v -0.17886312 0.02635357 0.04768177
v -0.20364636 0.0263971 -0.04660167
v -0.15984328 -0.02380747 0.0719322
v -0.17886312 0.02635357 0.04768177
v -0.17937472 -0.02420837 0.04706277
v -0.16575058 0.02623869 -0.00594204
v -0.16575058 0.02623869 -0.00594204
v -0.19622883 0.02612173 -0.03897057
v -0.18140222 -0.02450894 -0.02281868
v -0.20364636 0.0263971 -0.04660167
v -0.20260619 0.02641009 0.01960672
v -0.20360248 -0.0245643 -0.04632502
v -0.20260619 0.02641009 0.01960672
v -0.19414322 -0.02443936 0.0293265
v -0.22250463 0.02638086 -0.00410675
v -0.24241666 0.0264689 -0.02698271
v -0.22011735 0.02619945 -0.06245907
v -0.22500661 -0.02464533 -0.0674121
v -0.23240654 0.02628938 -0.07566908
v -0.22011735 0.02619945 -0.06245907
v -0.27445185 0.02673811 -0.06270424
v -0.23240654 0.02628938 -0.07566908
v -0.23820904 -0.02460952 -0.08311749
v -0.24834573 0.02656877 -0.09597307
v -0.26397201 0.02653404 -0.0507475
v -0.25352886 -0.0245032 -0.1036176
v -0.24834573 0.02656877 -0.09597307
v -0.24241666 0.0264689 -0.02698271
v -0.26931268 -0.02451286 -0.05687246
v -0.23936643 -0.02427674 -0.02307769
v -0.26254538 0.02659514 -0.11551307
v -0.26397201 0.02653404 -0.0507475
v -0.26625758 0.01546024 -0.1224459
v -0.26569358 -0.02446672 -0.12174773
v -0.26254538 0.02659514 -0.11551307
v -0.29236525 0.02684387 -0.08255021
v -0.27325341 0.02640281 -0.13584283
v -0.27378124 -0.02441969 -0.13734788
v -0.29063097 -0.02445454 -0.08039784
v -0.28306895 0.02618449 -0.15865514
v -0.27962619 0.00129029 -0.15239167
v -0.28852466 -0.02460838 -0.17093728
v -0.27325341 0.02640281 -0.13584283
v -0.31599277 0.02693427 -0.10821446
v -0.28837049 0.02597391 -0.17051032
v -0.29116589 0.0263643 -0.17201062
v -0.28306895 0.02618449 -0.15865514
v -0.33208874 0.0270045 -0.12479062
v -0.29236525 0.02684387 -0.08255021
v -0.31906679 -0.00141265 -0.11095001
v -0.31999072 -0.02471367 -0.1123079
v -0.32939425 0.02688987 -0.16914803
v -0.33678398 -0.02457754 -0.12952109
v -0.34873608 0.02707027 -0.14199686
v -0.32939425 0.02688987 -0.16914803
v -0.32888958 0.01709333 -0.16869679
v -0.33896184 0.02682969 -0.17926058
v -0.33358961 -0.02494153 -0.17318034
v -0.34390315 -0.02479797 -0.18551292
v -0.33896184 0.02682969 -0.17926058
v -0.37982076 0.02698517 -0.17617799
v -0.36147138 -0.02475287 -0.1551366
v -0.35292974 0.0267487 -0.19848017
v -0.35310146 -0.02463721 -0.19842085
v -0.35292974 0.0267487 -0.19848017
v -0.36827743 0.02692824 -0.16296859
v -0.34873608 0.02707027 -0.14199686
v -0.36926985 0.02688456 -0.22221644
v -0.36881393 0.00383271 -0.22252013
v -0.37104377 -0.02464698 -0.22507152
v -0.36926985 0.02688456 -0.22221644
v -0.38019931 0.02669697 -0.23997524
v -0.39379802 0.02692005 -0.19322644
v -0.38599724 -0.02464982 -0.24935971
v -0.38019931 0.02669697 -0.23997524
v -0.39335066 0.0269371 -0.25917894
v -0.39335066 0.0269371 -0.25917894
v -0.39647013 -0.0029917 -0.26481286
v -0.402078 -0.02449171 -0.27262995
v -0.41475737 0.02692486 -0.28868109
v -0.41854188 0.02698008 -0.22677763
v -0.4141413 -0.02457507 -0.28832382
v -0.43643486 0.02687034 -0.24942799
v -0.43403646 -0.01338476 -0.3124631
v -0.43968529 -0.02459965 -0.31850609
v -0.45597908 0.0272609 -0.27473786
v -0.41854188 0.02698008 -0.22677763
v -0.44253224 0.01374764 -0.2566126
v -0.42539626 -0.0244802 -0.23503864
v -0.41475737 0.02692486 -0.28868109
v -0.44163957 0.02700141 -0.32078674
v -0.44163957 0.02700141 -0.32078674
v -0.46125838 -0.00738965 -0.34301603
v -0.47039023 0.02719011 -0.35304856
v -0.46166119 -0.02436715 -0.28082973
v -0.44138601 -0.02425627 -0.25508291
v -0.47708043 0.02710944 -0.30232579
v -0.48919076 0.02706523 -0.32136691
v -0.47039023 0.02719011 -0.35304856
v -0.47708043 0.02710944 -0.30232579
v -0.45597908 0.0272609 -0.27473786
v -0.4865683 0.0275897 -0.37065524
v -0.48683605 -0.02470145 -0.3702985
v -0.49809033 0.02751283 -0.3648037
v -0.49941006 0.02737848 -0.34425691
v -0.4865683 0.0275897 -0.37065524
v 0.48652679 0.02839167 -0.36969155
v 0.48677129 -0.02497377 -0.36989188
v 0.48677129 -0.02497377 -0.36989188
v 0.46726337 -0.02479119 -0.34900922
v 0.4770349 0.02799588 -0.35998338
v 0.48652679 0.02839167 -0.36969155
v 0.48677129 -0.02497377 -0.36989188
v 0.48719057 -0.02465579 -0.31815648
v 0.46107668 0.00054072 -0.34305492
v 0.47800887 -0.02468465 -0.30346224
v 0.44494885 0.02762441 -0.32460797
v 0.46726337 -0.02479119 -0.34900922
v 0.43730387 -0.02465593 -0.31592888
v 0.42906365 -0.02473247 -0.27387187
v 0.45428687 -0.02442485 -0.27164888
v 0.43179125 -0.00122196 -0.3101553
v 0.43730387 -0.02465593 -0.31592888
v 0.43820596 -0.02432067 -0.25032371
v 0.41703391 0.02750627 -0.29165468
v 0.41229999 -0.02428212 -0.28608403
v 0.40006712 -0.02466832 -0.26975071
v 0.42487705 -0.02452816 -0.23288794
v 0.41229999 -0.02428212 -0.28608403
v 0.37603641 -0.02493181 -0.23257421
v 0.39803696 0.00023583 -0.26755673
v 0.40006712 -0.02466832 -0.26975071
v 0.39792556 0.02747671 -0.26585069
v 0.39898962 -0.02458768 -0.19744086
v 0.38316718 0.02740036 -0.24433893
v 0.38626885 -0.02414595 -0.24984913
v 0.38626885 -0.02414595 -0.24984913
v 0.37248021 -0.00254699 -0.22785684
v 0.37288401 0.02747681 -0.22714224
v 0.37603641 -0.02493181 -0.23257421
v 0.36291358 -0.02472576 -0.21222648
v 0.38350406 -0.02456383 -0.17721631
v 0.36291358 -0.02472576 -0.21222648
v 0.35045752 0.02753812 -0.19393536
v 0.35848948 0.00414776 -0.20626889
v 0.34206465 -0.02472425 -0.18194266
v 0.3416647 0.01373446 -0.1824213
v 0.34928161 -0.02406825 -0.19246314
v 0.34206465 -0.02472425 -0.18194266
v 0.3497715 -0.02377658 -0.13715869
v 0.32812342 -0.02410555 -0.11414955
v 0.332228 -0.02402123 -0.16943574
v 0.31828657 -0.02456687 -0.13116905
v 0.33130491 0.02763289 -0.16864422
v 0.32620618 -0.02450873 -0.16212808
v 0.32620618 -0.02450873 -0.16212808
v 0.32570007 0.027251 -0.16238272
v 0.32570007 0.027251 -0.16238272
v 0.32620618 -0.02450873 -0.16212808
v 0.32348013 -0.02427635 -0.16178291
v 0.32279751 0.02724765 -0.16120699
v 0.30150223 0.02723905 -0.16810565
v 0.29074728 -0.02466293 -0.15199585
v 0.30142939 -0.02398074 -0.16926657
v 0.32348013 -0.02427635 -0.16178291
v 0.30355728 -0.02425758 -0.08728124
v 0.27062348 -0.02442127 -0.07119304
v 0.27601686 -0.02460622 -0.12731104
v 0.26634586 -0.02471123 -0.11405969
v 0.28911763 0.02714023 -0.14789717
v 0.30150223 0.02723905 -0.16810565
v 0.30153307 0.00108656 -0.16857399
v 0.29074728 -0.02466293 -0.15199585
v 0.30142939 -0.02398074 -0.16926657
v 0.27468666 0.02729812 -0.12381818
v 0.27601686 -0.02460622 -0.12731104
v 0.27783877 -0.02341609 -0.05954998
v 0.25718266 -0.0238766 -0.04068495
v 0.26681989 -0.00857181 -0.11516454
v 0.26634586 -0.02471123 -0.11405969
v 0.24973415 0.02720468 -0.09480193
v 0.2322073 -0.02455135 -0.07504065
v 0.23931825 -0.02385449 -0.02233493
v 0.2322073 -0.02455135 -0.07504065
v 0.22725926 0.00015267 -0.06956898
v 0.23185961 0.02721475 -0.07387281
v 0.21658085 -0.02432566 -0.05867433
v 0.218871 0.02713688 -0.06061474
v 0.21980962 -0.02390166 -0.00146674
v 0.21658085 -0.02432566 -0.05867433
v 0.20155197 0.02707986 -0.04430304
v 0.19457282 -0.0243795 -0.03715001
v 0.19769788 -0.01041412 -0.04071242
v 0.19457282 -0.0243795 -0.03715001
v 0.19561547 -0.02396636 0.02243008
v 0.18329976 0.02695533 -0.02483921
v 0.1675086 -0.02407745 -0.00875548
v 0.1678101 -0.02409217 0.03480262
v 0.17972153 -0.02372355 0.03969888
v 0.1675086 -0.02407745 -0.00875548
v 0.14951815 -0.02408017 0.0102142
v 0.16509821 0.02687207 -0.00596718
v 0.15678124 -0.02384652 0.06647538
v 0.14602244 0.02696287 0.01394842
v 0.14951815 -0.02408017 0.0102142
v 0.12513518 -0.02422221 0.03674505
v 0.13821465 -0.02398889 0.08920569
v 0.12418337 0.02682864 0.0374716
v 0.12513518 -0.02422221 0.03674505
v 0.13626744 -0.02416352 0.0883409
v 0.11398776 -0.02411155 0.06644201
v 0.13753103 0.02648249 0.08981194
v 0.10431436 -0.02462293 0.05769149
v 0.10431436 -0.02462293 0.05769149
v 0.10436893 0.02691524 0.05751706
v 0.1037562 -0.02446497 0.05961318
v 0.11688091 0.02684711 0.21736552
v 0.11730035 -0.00718542 0.21715254
v 0.11723907 -0.02478164 0.21717009
v 0.10961085 -0.02488585 0.21076274
v 0.10844033 -0.02454604 -0.07523564
v 0.10388174 0.0270186 0.05955862
v 0.1037562 -0.02446497 0.05961318
v 0.05494575 -0.02501076 0.23545191
v 0.11723907 -0.02478164 0.21717009
v 0.09192003 -0.02456402 0.25047424
v 0.10526199 -0.02457161 -0.10129867
v 0.10844033 -0.02454604 -0.07523564
v 0.09865689 -0.02443533 -0.14347334
v 0.10976 -0.02437612 -0.06410897
v 0.10961085 -0.02488585 0.21076274
v 0.08405998 -0.02486082 0.18648657
v 0.08405998 -0.02486082 0.18648657
v 0.07340383 -0.02493863 0.20654339
v 0.09049333 -0.0246138 -0.19229539
v 0.06298439 -0.02479876 -0.11166452
v 0.06779317 -0.02470346 -0.0914586
v 0.09424177 -0.02429619 -0.05374442
v 0.07501117 -0.02456467 -0.06051942
v 0.07999367 -0.02447417 -0.04309773
v 0.05240575 -0.02472207 -0.1692369
v 0.06990162 0.02704192 0.21228988
v 0.0841646 0.02712337 0.18724854
v 0.07345871 -0.00769356 0.20554027
v 0.08405998 -0.02486082 0.18648657
v 0.06959391 -0.02478291 0.28106675
v 0.08394668 -0.02449809 -0.22748773
v 0.08004168 0.02734724 -0.04355304
v 0.07503948 0.02756402 -0.05968489
v 0.07999367 -0.02447417 -0.04309773
v 0.07501117 -0.02456467 -0.06051942
v 0.07340383 -0.02493863 0.20654339
v 0.07640895 -0.02448605 -0.26265624
v 0.04839532 -0.02466945 -0.27927092
v 0.05814725 -0.02465666 -0.13612659
v 0.06779317 -0.02470346 -0.0914586
v 0.06893873 0.02759245 -0.08641735
v 0.05494575 -0.02501076 0.23545191
v 0.05618978 0.0045697 0.23312205
v 0.04155775 -0.02502397 0.25824741
v 0.04399504 0.02761408 -0.30526793
v 0.06718451 0.02722632 -0.30530122
v 0.06718423 -0.02439609 -0.30536255
v 0.06718423 -0.02439609 -0.30536255
v 0.07073202 -0.02449404 -0.28844649
v 0.04306754 -0.02450979 -0.21924019
v 0.04691863 -0.02442335 -0.19690856
v 0.05232206 0.02761385 -0.16828305
v 0.05240575 -0.02472207 -0.1692369
v 0.04358421 0.02720871 0.25488585
v 0.04082916 -0.00921574 0.25849706
v 0.03553832 -0.02453428 -0.26102462
v 0.04770518 0.02760995 -0.19433622
v 0.04691863 -0.02442335 -0.19690856
v 0.02712887 -0.02503943 0.28024033
v 0.04161382 0.02767188 -0.22848541
v 0.04155775 -0.02502397 0.25824741
v 0.04306754 -0.02450979 -0.21924019
v 0.03046891 0.02724059 0.27529997
v 0.04415347 -0.02463749 0.31607902
v 0.02467336 -0.02473487 0.34018022
v 0.03378564 -0.02453615 -0.26227134
v 0.01828136 -0.02436266 -0.26169547
v 0.03553832 -0.02453428 -0.26102462
v -0.03910732 0.0276139 -0.30514821
v 0.02464229 0.00126252 0.28279477
v 0.02712887 -0.02503943 0.28024033
v 0.0009008 -0.0249853 0.31989303
v -0.07213045 -0.02466682 -0.28104392
v 0.01136935 0.02697579 0.30126536
v 0.00947881 -0.02469221 0.35703039
v -0.03801431 -0.0244587 -0.30517522
v 0.0122954 -0.02434832 0.30008116
v 0.00052936 -0.02461473 0.31495124
v 0.00052936 -0.02461473 0.31495124
v 0.01071654 0.00045429 0.30093056
v 0.0008563 0.02049294 0.31326234
v -0.001316 0.02693064 0.31704769
v -0.00225412 0.02198531 0.3144621
v -0.00190259 -0.02435985 0.31483176
v -0.00190259 -0.02435985 0.31483176
v -0.01689724 -0.02475216 0.34266824
v 0.00158962 -0.0246693 0.36474928
v -0.00033856 0.0096145 0.3156212
v -0.00613909 -0.02488046 0.30897093
v -0.03801431 -0.0244587 -0.30517522
v -0.03398942 -0.02435251 -0.26183549
v 0.00173666 0.02673466 0.36503699
v 0.00158962 -0.0246693 0.36474928
v -0.04321494 -0.02515043 0.26154649
v -0.03611353 -0.0245552 -0.26054609
v -0.01557539 -0.02491338 0.29689929
v -0.00613909 -0.02488046 0.30897093
v -0.04321494 -0.02515043 0.26154649
v -0.02889353 -0.02470098 0.32729346
v -0.04979423 -0.0246814 0.300383
v -0.02889353 -0.02470098 0.32729346
v -0.02957085 -0.02504667 0.27876526
v -0.01557539 -0.02491338 0.29689929
v -0.05286501 -0.02503292 0.24841075
v -0.06670435 -0.02435112 -0.30543962
v -0.03845309 -0.02455329 -0.24419135
v -0.06682879 0.0274763 -0.30565685
v -0.04603434 -0.02463428 -0.20236176
v -0.06353799 -0.0248882 -0.22630975
v -0.06670435 -0.02435112 -0.30543962
v -0.08826241 -0.02471793 0.25395879
v -0.07517394 -0.02461542 0.26868674
v -0.06682879 0.0274763 -0.30565685
v -0.06670435 -0.02435112 -0.30543962
v -0.08307578 -0.02466874 -0.23114567
v -0.07512063 0.02759573 -0.2689006
v -0.08307578 -0.02466874 -0.23114567
v -0.05197809 -0.02488862 -0.16548319
v -0.05562519 -0.02486272 -0.1431368
v -0.10000025 -0.02478113 -0.13835387
v -0.06164598 -0.02471565 -0.1043728
v -0.06771529 -0.02472191 -0.07110696
v -0.07210366 -0.02476203 -0.04460781
v -0.08693746 -0.02450641 -0.04597637
v -0.064431 -0.02483924 0.23061581
v -0.07551538 -0.02489358 0.20963211
v -0.08091114 0.02745999 -0.23926514
v -0.08772621 -0.02465717 -0.20705272
v -0.09387153 -0.02477784 -0.17432415
v -0.07296264 -0.02491657 -0.03655449
v -0.08772621 -0.02465717 -0.20705272
v -0.07755098 -0.02443118 -0.25720543
v -0.08307578 -0.02466874 -0.23114567
v -0.08772621 -0.02465717 -0.20705272
v -0.0868206 0.02739277 -0.21110089
v -0.10158498 -0.02479305 0.2056842
v -0.108868 -0.02471024 -0.08411383
v -0.08463552 -0.02486634 0.18771552
v -0.09401287 0.02748561 -0.17349035
v -0.09387153 -0.02477784 -0.17432415
v -0.10471 -0.02469049 -0.11107225
v -0.0844629 0.02705878 0.1884018
v -0.08463552 -0.02486634 0.18771552
v -0.09927267 0.02686059 0.20426211
v -0.10158498 -0.02479305 0.2056842
v -0.1032756 0.02739378 -0.11994914
v -0.10099312 -0.02447163 -0.05603717
v -0.10000025 -0.02478113 -0.13835387
v -0.11858457 -0.02463816 0.22410768
v -0.10471 -0.02469049 -0.11107225
v -0.11134044 -0.0247207 -0.06350818
v -0.11133169 0.02700464 -0.06228624
v -0.1092803 0.00793656 -0.08117826
v -0.108868 -0.02471024 -0.08411383
v -0.11097119 0.02723157 -0.07225742
v -0.1046759 0.02666104 0.06005868
v -0.11864365 0.02686425 0.22322109
v -0.11833023 -0.02425519 0.22171846
v -0.11121733 0.0074587 -0.06316408
v -0.11134044 -0.0247207 -0.06350818
v -0.11133169 0.02700464 -0.06228624
v -0.11372679 -0.02477352 0.05055127
v -0.10469592 -0.02493093 0.06022021
v -0.11115529 -0.02464944 0.0642488
v -0.11833023 -0.02425519 0.22171846
v -0.11864365 0.02686425 0.22322109
v -0.13438426 -0.02433301 0.06836214
v -0.12484095 -0.02396941 0.07704471
v -0.11858457 -0.02463816 0.22410768
v -0.12903404 -0.02448359 0.03532831
v -0.14042082 -0.02450475 0.0230664
v -0.14243315 -0.02430954 0.09464704
v -0.15984328 -0.02380747 0.0719322
v -0.14210127 0.02660514 0.09441909
v -0.1551519 0.02630404 0.07787836
v -0.14243315 -0.02430954 0.09464704
v -0.16717465 -0.02433376 -0.00736525
v -0.17937472 -0.02420837 0.04706277
v -0.19414322 -0.02443936 0.0293265
v -0.18140222 -0.02450894 -0.02281868
v -0.20360248 -0.0245643 -0.04632502
v -0.21529432 -0.02449091 -0.02033389
v -0.21909221 -0.02422753 2.83E-05
v -0.21909221 -0.02422753 2.83E-05
v -0.26931268 -0.02451286 -0.05687246
v -0.22500661 -0.02464533 -0.0674121
v -0.23936643 -0.02427674 -0.02307769
v -0.22250463 0.02638086 -0.00410675
v -0.26971218 -0.02473484 -0.08686673
v -0.23820904 -0.02460952 -0.08311749
v -0.25352886 -0.0245032 -0.1036176
v -0.26569358 -0.02446672 -0.12174773
v -0.29063097 -0.02445454 -0.08039784
v -0.27378124 -0.02441969 -0.13734788
v -0.28837049 0.02597391 -0.17051032
v -0.31999072 -0.02471367 -0.1123079
v -0.29116589 0.0263643 -0.17201062
v -0.28996521 0.00390934 -0.17132814
v -0.2901344 -0.0230579 -0.17167315
v -0.32063344 0.01375565 -0.17028417
v -0.32989147 -0.02490181 -0.16990525
v -0.28852466 -0.02460838 -0.17093728
v -0.32270348 -0.02203822 -0.17068176
v -0.32989147 -0.02490181 -0.16990525
v -0.31599277 0.02693427 -0.10821446
v -0.32867309 -0.01633109 -0.16958331
v -0.36147138 -0.02475287 -0.1551366
v -0.33208874 0.0270045 -0.12479062
v -0.33358961 -0.02494153 -0.17318034
v -0.34390315 -0.02479797 -0.18551292
v -0.35310146 -0.02463721 -0.19842085
v -0.38085482 -0.02469724 -0.17776592
v -0.37104377 -0.02464698 -0.22507152
v -0.36827743 0.02692824 -0.16296859
v -0.38810727 -0.00387219 -0.18579447
v -0.37982076 0.02698517 -0.17617799
v -0.40235338 -0.02465459 -0.20427358
v -0.38599724 -0.02464982 -0.24935971
v -0.38085482 -0.02469724 -0.17776592
v -0.39379802 0.02692005 -0.19322644
v -0.40235338 -0.02465459 -0.20427358
v -0.402078 -0.02449171 -0.27262995
v -0.42259645 -0.02464524 -0.26555604
v -0.40467307 0.00498166 -0.20716254
v -0.42539626 -0.0244802 -0.23503864
v -0.4141413 -0.02457507 -0.28832382
v -0.44138601 -0.02425627 -0.25508291
v -0.43643486 0.02687034 -0.24942799
v -0.47573173 -0.02459185 -0.29998508
v -0.43968529 -0.02459965 -0.31850609
v -0.46166119 -0.02436715 -0.28082973
v -0.47184777 -0.02464286 -0.35400847
v -0.47184777 -0.02464286 -0.35400847
v -0.47573173 -0.02459185 -0.29998508
v -0.49242842 -0.02460664 -0.32912946
v -0.48445889 -0.02448155 -0.3131558
v -0.48683605 -0.02470145 -0.3702985
v -0.48919076 0.02706523 -0.32136691
v -0.48445889 -0.02448155 -0.3131558
v -0.49038327 0.01600465 -0.36883578
v -0.4865683 0.0275897 -0.37065524
v -0.48683605 -0.02470145 -0.3702985
v -0.49004516 -0.02471645 -0.36918584
v -0.49004516 -0.02471645 -0.36918584
v -0.49809033 0.02751283 -0.3648037
v -0.49903771 -0.02491627 -0.36251661
v -0.49916875 -0.02475516 -0.34510311
v -0.49242842 -0.02460664 -0.32912946
v -0.49894843 0.01559152 -0.36203018
v -0.49903771 -0.02491627 -0.36251661
v -0.49840471 0.0031153 -0.34355828
v -0.50093371 0.02631273 -0.35667011
v -0.50073177 -0.02291725 -0.35904363
v -0.50093371 0.02631273 -0.35667011
v -0.49916875 -0.02475516 -0.34510311
v -0.49941006 0.02737848 -0.34425691
v -0.49840471 0.0031153 -0.34355828
v -0.49941006 0.02737848 -0.34425691
v -0.49916875 -0.02475516 -0.34510311
vt 0.88504 0.97667
vt 0.88955 0.9766
vt 0.88721 0.98302
vt 0.89071 0.95283
vt 0.88447 0.94844
vt 0.88706 0.94554
vt 0.75456 0.68978
vt 0.75407 0.68338
vt 0.82416 0.68774
vt 0.82116 0.67728
vt 0.07397 0.36059
vt 0.08923 0.35141
vt 0.06946 0.37028
vt 0.02065 0.24282
vt 0.04067 0.24513
vt 0.02677 0.30874
vt 0.04726 0.24326
vt 0.04432 0.31149
vt 0.78527 0.70137
vt 0.8592 0.43753
vt 0.85421 0.45142
vt 0.85756 0.43142
vt 0.07482 0.24381
vt 0.0795 0.31112
vt 0.80968 0.40821
vt 0.83631 0.41536
vt 0.83682 0.4524
vt 0.09683 0.24403
vt 0.10172 0.3112
vt 0.15312 0.27486
vt 0.77557 0.45355
vt 0.15262 0.31097
vt 0.69741 0.42588
vt 0.788 0.4043
vt 0.72866 0.39972
vt 0.15635 0.24401
vt 0.18688 0.31089
vt 0.20407 0.26063
vt 0.20454 0.24454
vt 0.72017 0.45269
vt 0.68057 0.3964
vt 0.21504 0.3112
vt 0.25921 0.28759
vt 0.26477 0.24495
vt 0.67912 0.44936
vt 0.27135 0.31138
vt 0.64588 0.44544
vt 0.57975 0.38793
vt 0.62063 0.3905
vt 0.57724 0.41279
vt 0.30404 0.3114
vt 0.62059 0.44084
vt 0.30574 0.24489
vt 0.33801 0.29318
vt 0.56958 0.43445
vt 0.37123 0.31052
vt 0.52999 0.38764
vt 0.35552 0.24505
vt 0.38101 0.26359
vt 0.46471 0.40365
vt 0.41336 0.24524
vt 0.52899 0.4316
vt 0.51342 0.42925
vt 0.47216 0.38777
vt 0.51821 0.43173
vt 0.51462 0.43355
vt 0.44385 0.2454
vt 0.47649 0.30015
vt 0.41177 0.31104
vt 0.45848 0.3113
vt 0.47334 0.45494
vt 0.50331 0.46005
vt 0.44168 0.38816
vt 0.75718 0.74092
vt 0.72532 0.73969
vt 0.78991 0.74095
vt 0.4379 0.44853
vt 0.38352 0.39057
vt 0.50208 0.24538
vt 0.50702 0.3103
vt 0.35351 0.44774
vt 0.547 0.2922
vt 0.54291 0.31097
vt 0.38881 0.44814
vt 0.55472 0.24574
vt 0.33115 0.39572
vt 0.57576 0.31099
vt 0.26941 0.39817
vt 0.61242 0.31112
vt 0.61653 0.24589
vt 0.32973 0.4491
vt 0.65845 0.24604
vt 0.65606 0.31129
vt 0.22759 0.40085
vt 0.29936 0.45208
vt 0.26515 0.45329
vt 0.1757 0.44243
vt 0.23156 0.45495
vt 0.69278 0.24631
vt 0.19329 0.40172
vt 0.68618 0.31103
vt 0.15856 0.40149
vt 0.72752 0.24632
vt 0.73143 0.31125
vt 0.19622 0.45657
vt 0.76946 0.25754
vt 0.75877 0.24658
vt 0.76909 0.31149
vt 0.77034 0.24683
vt 0.15507 0.45782
vt 0.11851 0.44249
vt 0.12733 0.40072
vt 0.1178 0.41677
vt 0.11577 0.40051
vt 0.05964 0.92585
vt 0.06207 0.9802
vt 0.05945 0.97997
vt 0.07604 0.9151
vt 0.11898 0.46005
vt 0.1166 0.45879
vt 0.40488 0.88077
vt 0.40545 0.85616
vt 0.45378 0.81352
vt 0.40576 0.8138
vt 0.10192 0.91505
vt 0.11827 0.91448
vt 0.10252 0.98018
vt 0.11827 0.98065
vt 0.47664 0.88062
vt 0.50858 0.81365
vt 0.0306 0.46653
vt 0.07305 0.49059
vt 0.07322 0.46629
vt 0.99546 0.11681
vt 0.93291 0.09135
vt 0.99687 0.09981
vt 0.44297 0.88202
vt 0.5139 0.91294
vt 0.44243 0.92564
vt 0.5076 0.88233
vt 0.4425 0.94819
vt 0.53042 0.88077
vt 0.53879 0.83337
vt 0.00584 0.46642
vt 0.00563 0.4911
vt 0.49634 0.94791
vt 0.56962 0.88049
vt 0.58885 0.87106
vt 0.57212 0.81336
vt 0.25914 0.53776
vt 0.20565 0.54424
vt 0.34346 0.55196
vt 0.3308 0.53121
vt 0.00967 0.51283
vt 0.90015 0.07044
vt 0.85955 0.07054
vt 0.8758 0.00352
vt 0.21676 0.5961
vt 0.00595 0.51317
vt 0.07322 0.51373
vt 0.6099 0.88056
vt 0.61808 0.81346
vt 0.16668 0.54914
vt 0.12679 0.55524
vt 0.95924 0.14739
vt 0.65101 0.88056
vt 0.29917 0.58259
vt 0.33384 0.57611
vt 0.35482 0.5705
vt 0.99504 0.15684
vt 0.89649 0.1332
vt 0.54508 0.94819
vt 0.66422 0.81343
vt 0.57045 0.94741
vt 0.69548 0.88042
vt 0.26034 0.58997
vt 0.6981 0.81338
vt 0.72026 0.88009
vt 0.04223 0.5696
vt 0.07451 0.61557
vt 0.0862 0.56238
vt 0.56676 0.88208
vt 0.72028 0.81348
vt 0.01777 0.57398
vt 0.01666 0.60367
vt 0.15942 0.60442
vt 0.19313 0.59981
vt 0.87454 0.0821
vt 0.07148 0.61882
vt 0.89648 0.83386
vt 0.82932 0.80809
vt 0.82916 0.84007
vt 0.11522 0.61053
vt 0.60076 0.94801
vt 0.59828 0.88228
vt 0.07045 0.65748
vt 0.63257 0.88211
vt 0.80934 0.07412
vt 0.84337 0.07777
vt 0.64063 0.94812
vt 0.89675 0.64676
vt 0.89662 0.64232
vt 0.87099 0.64565
vt 0.4341 0.7035
vt 0.45979 0.70628
vt 0.39237 0.70643
vt 0.39237 0.70417
vt 0.86597 0.12686
vt 0.39261 0.72647
vt 0.82497 0.12101
vt 0.66849 0.88233
vt 0.45995 0.74529
vt 0.75782 0.0725
vt 0.77349 0.07179
vt 0.66974 0.94806
vt 0.79908 0.11844
vt 0.68398 0.88214
vt 0.68381 0.94802
vt 0.01267 0.71008
vt 0.45995 0.79463
vt 0.80316 0.13532
vt 0.75156 0.62124
vt 0.74815 0.62762
vt 0.73417 0.6211
vt 0.75062 0.66732
vt 0.72508 0.6626
vt 0.73961 0.68811
vt 0.74891 0.68742
vt 0.76005 0.10029
vt 0.39271 0.79402
vt 0.70611 0.62121
vt 0.08448 0.38889
vt 0.05444 0.39245
vt 0.06652 0.40851
vt 0.08448 0.43258
vt 0.76647 0.1474
vt 0.15369 0.96067
vt 0.20127 0.96064
vt 0.16308 0.89471
vt 0.69051 0.68843
vt 0.65901 0.62133
vt 0.45995 0.79713
vt 0.39245 0.79678
vt 0.05747 0.75799
vt 0.06855 0.70636
vt 0.07001 0.70889
vt 0.04819 0.82472
vt 0.07345 0.82473
vt 0.06946 0.89161
vt 0.04825 0.89161
vt 0.11288 0.87568
vt 0.64135 0.68851
vt 0.10028 0.73677
vt 0.09491 0.71339
vt 0.12324 0.82459
vt 0.12405 0.89169
vt 0.80681 0.16313
vt 0.81306 0.20977
vt 0.77435 0.20404
vt 0.1435 0.72461
vt 0.17203 0.89201
vt 0.16339 0.82465
vt 0.01064 0.74555
vt 0.20086 0.8246
vt 0.20111 0.89197
vt 0.21968 0.73999
vt 0.18294 0.73239
vt 0.26004 0.82471
vt 0.2494 0.87551
vt 0.25149 0.89177
vt 0.62295 0.62184
vt 0.81956 0.24515
vt 0.80194 0.25631
vt 0.17915 0.78691
vt 0.29796 0.82471
vt 0.29492 0.89177
vt 0.59858 0.62178
vt 0.61405 0.68831
vt 0.77814 0.24131
vt 0.2319 0.89469
vt 0.2585 0.96066
vt 0.28407 0.89469
vt 0.09527 0.76687
vt 0.32941 0.89181
vt 0.33816 0.82464
vt 0.58372 0.68843
vt 0.82609 0.26864
vt 0.93194 0.24888
vt 0.93226 0.2802
vt 0.98247 0.26935
vt 0.13117 0.77584
vt 0.27794 0.75088
vt 0.35482 0.76789
vt 0.31508 0.75874
vt 0.35466 0.76613
vt 0.3398 0.89201
vt 0.97765 0.01318
vt 0.97532 0.03629
vt 0.97935 0.01311
vt 0.97935 0.08052
vt 0.57258 0.62123
vt 0.57921 0.65162
vt 0.83541 0.29324
vt 0.77897 0.26621
vt 0.30781 0.78966
vt 0.55454 0.62143
vt 0.55382 0.68843
vt 0.33782 0.79256
vt 0.8422 0.31024
vt 0.77863 0.2933
vt 0.94777 0.01371
vt 0.95777 0.07996
vt 0.29602 0.9604
vt 0.32091 0.9605
vt 0.30938 0.89451
vt 0.2475 0.80143
vt 0.81432 0.30954
vt 0.32121 0.81461
vt 0.7795 0.31024
vt 0.36379 0.89451
vt 0.91967 0.03908
vt 0.30841 0.81365
vt 0.34786 0.96067
vt 0.91927 0.08022
vt 0.93563 0.07991
vt 0.78911 0.82959
vt 0.77883 0.82969
vt 0.78911 0.89576
vt 0.7794 0.89542
vt 0.7305 0.04211
vt 0.76384 0.06929
vt 0.74684 0.06899
vt 0.75115 0.82987
vt 0.75507 0.89461
vt 0.7191 0.06846
vt 0.01207 0.09002
vt 0.06079 0.09267
vt 0.01292 0.10024
vt 0.72314 0.82982
vt 0.71516 0.00315
vt 0.72278 0.89512
vt 0.01234 0.12765
vt 0.6622 0.04822
vt 0.6976 0.06838
vt 0.03761 0.15394
vt 0.01064 0.15537
vt 0.64553 0.06785
vt 0.08675 0.15122
vt 0.19852 0.09511
vt 0.76867 0.46429
vt 0.72906 0.52913
vt 0.72808 0.46374
vt 0.1273 0.09301
vt 0.64849 0.00289
vt 0.59075 0.00272
vt 0.61854 0.06792
vt 0.57709 0.00224
vt 0.13387 0.15033
vt 0.57699 0.06775
vt 0.68183 0.52916
vt 0.69843 0.46342
vt 0.17355 0.14942
vt 0.21242 0.14925
vt 0.54769 0.00232
vt 0.53836 0.06762
vt 0.52449 0.00207
vt 0.22772 0.09757
vt 0.27393 0.14988
vt 0.25084 0.09823
vt 0.51198 0.06742
vt 0.49131 0.00152
vt 0.25355 0.1499
vt 0.47908 0.0671
vt 0.28388 0.09639
vt 0.60311 0.52918
vt 0.55154 0.4632
vt 0.60953 0.46356
vt 0.46026 0.00132
vt 0.56193 0.52922
vt 0.4501 0.01559
vt 0.45101 0.06692
vt 0.31471 0.09353
vt 0.3082 0.15034
vt 0.43072 0.00145
vt 0.42842 0.06676
vt 0.51078 0.46324
vt 0.39879 0.00161
vt 0.40782 0.03364
vt 0.38127 0.06682
vt 0.34335 0.08661
vt 0.3529 0.15139
vt 0.38952 0.07179
vt 0.39333 0.07322
vt 0.37362 0.07673
vt 0.38248 0.15287
vt 0.50718 0.52958
vt 0.45721 0.49299
vt 0.45513 0.46285
vt 0.42292 0.1126
vt 0.42432 0.463
vt 0.41314 0.15435
vt 0.32883 0.00062
vt 0.32957 0.01315
vt 0.31086 0.00078
vt 0.32184 0.06699
vt 0.30124 0.06699
vt 0.44075 0.11326
vt 0.47235 0.15537
vt 0.37872 0.46273
vt 0.28042 0.00115
vt 0.28094 0.06696
vt 0.47108 0.11044
vt 0.44987 0.15543
vt 0.40212 0.52977
vt 0.50776 0.10608
vt 0.24376 0.03082
vt 0.23978 0.06734
vt 0.24351 0.00128
vt 0.2168 0.00177
vt 0.5006 0.1544
vt 0.20325 0.06766
vt 0.53411 0.10156
vt 0.56373 0.09797
vt 0.18698 0.00171
vt 0.1791 0.04012
vt 0.167 0.06776
vt 0.14028 0.0021
vt 0.55384 0.14983
vt 0.14164 0.06806
vt 0.59079 0.14789
vt 0.10146 0.05404
vt 0.09098 0.06849
vt 0.6317 0.14529
vt 0.26107 0.52954
vt 0.21192 0.5124
vt 0.24733 0.46299
vt 0.61026 0.09361
vt 0.66392 0.09233
vt 0.08663 0.00242
vt 0.04898 0.04675
vt 0.03127 0.00259
vt 0.17235 0.46308
vt 0.21441 0.46325
vt 0.67612 0.14226
vt 0.70471 0.1378
vt 0.71931 0.09273
vt 0.13843 0.52963
vt 0.18298 0.52985
vt 0.00063 0.00231
vt 0.00123 0.06929
vt 0.75407 0.10952
vt 0.7354 0.12824
vt 0.74996 0.09342
vt 0.75444 0.70474
vt 0.82381 0.70474
vt 0.07442 0.3862
vt 0.1111 0.38639
vt 0.93009 0.52248
vt 0.93054 0.53976
vt 0.8617 0.53995
vt 0.12282 0.3409
vt 0.89478 0.49271
vt 0.14467 0.33677
vt 0.92981 0.46145
vt 0.86206 0.50349
vt 0.86243 0.44646
vt 0.21519 0.35706
vt 0.19532 0.33144
vt 0.89269 0.43638
vt 0.16837 0.38582
vt 0.22942 0.32803
vt 0.92984 0.40611
vt 0.21829 0.38352
vt 0.24433 0.38071
vt 0.25747 0.32543
vt 0.86307 0.39656
vt 0.30031 0.37102
vt 0.89478 0.36663
vt 0.86265 0.37035
vt 0.92992 0.36489
vt 0.31343 0.31898
vt 0.92991 0.33141
vt 0.86341 0.33928
vt 0.27516 0.37671
vt 0.89135 0.30613
vt 0.93008 0.30582
vt 0.86246 0.31363
vt 0.33092 0.36569
vt 0.34598 0.31597
vt 0.8628 0.28261
vt 0.9303 0.25442
vt 0.90007 0.27319
vt 0.37762 0.35898
vt 0.91255 0.23577
vt 0.86374 0.25181
vt 0.86294 0.23544
vt 0.41312 0.31273
vt 0.45366 0.31323
vt 0.86391 0.21502
vt 0.44619 0.33725
vt 0.93054 0.21369
vt 0.41011 0.35668
vt 0.86331 0.20287
vt 0.93008 0.20294
vt 0.72278 0.70787
vt 0.79036 0.70724
vt 0.79006 0.7108
vt 0.72278 0.71192
vt 0.723 0.74095
vt 0.45055 0.38118
vt 0.42496 0.3862
vt 0.41277 0.35901
vt 0.50039 0.31299
vt 0.54424 0.32996
vt 0.48665 0.37359
vt 0.50756 0.37118
vt 0.1218 0.62634
vt 0.0918 0.62624
vt 0.09132 0.66014
vt 0.11646 0.6935
vt 0.09074 0.69264
vt 0.15727 0.62609
vt 0.15277 0.69338
vt 0.54894 0.31289
vt 0.5847 0.31609
vt 0.17231 0.67259
vt 0.17377 0.69351
vt 0.20652 0.62622
vt 0.57407 0.36937
vt 0.61756 0.31695
vt 0.24051 0.69331
vt 0.25001 0.66129
vt 0.24194 0.6262
vt 0.60311 0.36984
vt 0.26581 0.62631
vt 0.65422 0.31716
vt 0.26963 0.69303
vt 0.29633 0.62641
vt 0.64257 0.37183
vt 0.30308 0.67502
vt 0.30918 0.69312
vt 0.69782 0.31914
vt 0.33068 0.62658
vt 0.69291 0.3726
vt 0.7337 0.33451
vt 0.72794 0.31907
vt 0.35965 0.69275
vt 0.72646 0.37303
vt 0.36441 0.62671
vt 0.77316 0.31738
vt 0.39989 0.6266
vt 0.3933 0.69276
vt 0.77271 0.3729
vt 0.81076 0.31509
vt 0.44121 0.62679
vt 0.43968 0.69296
vt 0.81167 0.31767
vt 0.81041 0.3576
vt 0.05965 0.91511
vt 0.81059 0.37429
vt 0.47766 0.6935
vt 0.47745 0.62669
vt 0.81289 0.37314
vt 0.84227 0.07044
vt 0.84178 0.02637
vt 0.84168 0.00359
vt 0.85463 0.00338
vt 0.42012 0.81357
vt 0.47983 0.62655
vt 0.47997 0.69329
vt 0.8257 0.64303
vt 0.75282 0.60268
vt 0.80606 0.59576
vt 0.75472 0.53619
vt 0.78829 0.53354
vt 0.70032 0.54234
vt 0.80262 0.53246
vt 0.75385 0.61541
vt 0.9005 0.00312
vt 0.75473 0.6606
vt 0.78266 0.65224
vt 0.63732 0.55012
vt 0.73912 0.5898
vt 0.76528 0.58475
vt 0.81505 0.55292
vt 0.80531 0.57719
vt 0.82791 0.57176
vt 0.66478 0.6002
vt 0.7283 0.99923
vt 0.6911 0.99938
vt 0.71842 0.95442
vt 0.69024 0.9323
vt 0.85413 0.58856
vt 0.59187 0.55658
vt 0.89636 0.93013
vt 0.89662 0.90846
vt 0.82965 0.93071
vt 0.82952 0.90747
vt 0.71955 0.93216
vt 0.54639 0.56432
vt 0.52357 0.59931
vt 0.70751 0.59466
vt 0.82931 0.86672
vt 0.89664 0.87275
vt 0.76381 0.93204
vt 0.76044 0.9702
vt 0.85859 0.6347
vt 0.97434 0.96956
vt 0.97384 0.99938
vt 0.90684 0.99938
vt 0.49117 0.5738
vt 0.51304 0.57018
vt 0.60019 0.60943
vt 0.62902 0.60572
vt 0.89656 0.76611
vt 0.8292 0.76498
vt 0.79292 0.99937
vt 0.79871 0.95239
vt 0.54624 0.61679
vt 0.89653 0.73217
vt 0.82955 0.72879
vt 0.89169 0.62804
vt 0.89658 0.68768
vt 0.79792 0.93199
vt 0.82942 0.69973
vt 0.82422 0.99938
vt 0.90905 0.58021
vt 0.94863 0.57626
vt 0.54455 0.61896
vt 0.54444 0.63887
vt 0.82935 0.64526
vt 0.97434 0.86273
vt 0.83638 0.96586
vt 0.83184 0.93196
vt 0.95157 0.61624
vt 0.51469 0.75368
vt 0.86578 0.99894
vt 0.9777 0.57491
vt 0.48564 0.70863
vt 0.86373 0.9329
vt 0.88814 0.93251
vt 0.94731 0.62098
vt 0.86584 0.96477
vt 0.88637 0.99052
vt 0.89174 0.99901
vt 0.89083 0.99212
vt 0.89134 0.93283
vt 0.94922 0.62332
vt 0.98842 0.61189
vt 0.99186 0.57513
vt 0.7508 0.64357
vt 0.94804 0.63253
vt 0.90676 0.86413
vt 0.54139 0.70585
vt 0.12578 0.96067
vt 0.12607 0.89488
vt 0.93838 0.70905
vt 0.54293 0.70864
vt 0.0194 0.34242
vt 0.01815 0.32272
vt 0.01815 0.40012
vt 0.98527 0.63667
vt 0.97967 0.67997
vt 0.18813 0.89474
vt 0.94167 0.6811
vt 0.94546 0.65208
vt 0.93515 0.72968
vt 0.48373 0.74539
vt 0.56376 0.71254
vt 0.97416 0.82709
vt 0.61694 0.72455
vt 0.58529 0.74567
vt 0.9069 0.82725
vt 0.97219 0.75685
vt 0.97377 0.73165
vt 0.9992 0.2166
vt 0.93233 0.21687
vt 0.57803 0.77044
vt 0.99937 0.26487
vt 0.93179 0.31427
vt 0.66386 0.73419
vt 0.6923 0.74009
vt 0.69599 0.79722
vt 0.74163 0.74993
vt 0.78393 0.75953
vt 0.81764 0.76661
vt 0.81507 0.78554
vt 0.92941 0.75626
vt 0.92034 0.78528
vt 0.99921 0.30354
vt 0.60864 0.77772
vt 0.65024 0.78739
vt 0.82791 0.76815
vt 0.00814 0.39014
vt 0.00814 0.4563
vt 0.00688 0.42186
vt 0.93199 0.34575
vt 0.99914 0.34041
vt 0.9403 0.81254
vt 0.765 0.81156
vt 0.90864 0.81336
vt 0.99928 0.38945
vt 0.93186 0.3884
vt 0.73069 0.80475
vt 0.37505 0.98564
vt 0.37484 0.91823
vt 0.40313 0.98551
vt 0.40681 0.91846
vt 0.9992 0.45906
vt 0.80141 0.803
vt 0.93187 0.43514
vt 0.97243 0.81136
vt 0.93201 0.4706
vt 0.79127 0.81586
vt 0.92021 0.01407
vt 0.97412 0.50932
vt 0.932 0.50554
vt 0.99902 0.52093
vt 0.76408 0.003
vt 0.43821 0.98564
vt 0.43681 0.91926
vt 0.9735 0.53253
vt 0.93199 0.53212
vt 0.99871 0.53371
vt 0.02137 0.1754
vt 0.00442 0.17487
vt 0.00599 0.1845
vt 0.97003 0.81336
vt 0.36483 0.96043
vt 0.02166 0.21036
vt 0.00523 0.2085
vt 0.43992 0.91879
vt 0.04899 0.17729
vt 0.07043 0.1779
vt 0.00313 0.24032
vt 0.03974 0.23791
vt 0.80538 0.52951
vt 0.77834 0.5291
vt 0.80538 0.46367
vt 0.12239 0.17796
vt 0.08023 0.23571
vt 0.10981 0.23496
vt 0.14931 0.17862
vt 0.19074 0.18014
vt 0.17557 0.21337
vt 0.15915 0.23424
vt 0.649 0.46366
vt 0.25646 0.23455
vt 0.22916 0.18295
vt 0.19856 0.23425
vt 0.64207 0.5291
vt 0.28571 0.20959
vt 0.25546 0.1824
vt 0.28818 0.17984
vt 0.31594 0.17624
vt 0.29716 0.23522
vt 0.33781 0.17086
vt 0.3821 0.00182
vt 0.35274 0.23654
vt 0.37807 0.00129
vt 0.37955 0.03014
vt 0.37914 0.06471
vt 0.34023 0.01744
vt 0.41663 0.19741
vt 0.38266 0.15668
vt 0.3374 0.06325
vt 0.32815 0.06694
vt 0.46241 0.52965
vt 0.32961 0.05591
vt 0.42909 0.24032
vt 0.4328 0.52971
vt 0.42292 0.19821
vt 0.44353 0.19773
vt 0.46374 0.19568
vt 0.46729 0.23988
vt 0.5046 0.19045
vt 0.36534 0.52955
vt 0.32653 0.48969
vt 0.34281 0.5296
vt 0.51102 0.2382
vt 0.54066 0.18434
vt 0.34045 0.46277
vt 0.31449 0.5295
vt 0.29662 0.46279
vt 0.57669 0.18017
vt 0.58721 0.20592
vt 0.29183 0.50111
vt 0.56016 0.23441
vt 0.60201 0.17853
vt 0.593 0.23288
vt 0.22401 0.52938
vt 0.66532 0.22803
vt 0.6527 0.17764
vt 0.63496 0.23066
vt 0.0296 0.069
vt 0.71412 0.17864
vt 0.14189 0.46277
vt 0.70753 0.21949
vt 0.6854 0.22531
vt 0.74249 0.17931
vt 0.10971 0.52956
vt 0.12174 0.4629
vt 0.04135 0.87568
vt 0.04693 0.89076
vt 0.04693 0.82258
vt 0.04249 0.82251
vt 0.74413 0.18335
vt 0.03007 0.89075
vt 0.74531 0.19765
vt 0.72863 0.21249
vt 0.09947 0.46274
vt 0.02684 0.87505
vt 0.02777 0.8221
vt 0.08034 0.49859
vt 0.01894 0.88885
vt 0.02293 0.82502
vt 0.74864 0.11917
vt 0.00462 0.82222
vt 0.0025 0.89001
vt 0.00188 0.85843
vt 0.0788 0.52996
vt 0.07822 0.46255
usemtl mat0
f 1/1 2/2 3/3
f 4/4 1/1 5/5
f 4/4 2/2 1/1
f 5/5 6/6 4/4
f 7/7 8/8 9/9
f 8/8 10/10 9/9
f 11/11 12/12 13/13
f 14/14 15/15 16/16
f 14/14 17/17 15/15
f 16/16 15/15 18/18
f 15/15 17/17 18/18
f 7/7 9/9 19/19
f 20/20 21/21 22/22
f 23/23 24/24 17/17
f 17/17 24/24 18/18
f 22/22 25/25 26/26
f 21/21 27/27 22/22
f 22/22 27/27 25/25
f 23/23 28/28 24/24
f 24/24 28/28 29/29
f 28/28 30/30 29/29
f 27/27 31/31 25/25
f 29/29 30/30 32/32
f 25/25 33/33 34/34
f 33/33 35/35 34/34
f 36/36 30/30 28/28
f 31/31 33/33 25/25
f 30/30 37/37 32/32
f 30/30 38/38 37/37
f 36/36 39/39 38/38
f 36/36 38/38 30/30
f 31/31 40/40 33/33
f 35/35 33/33 41/41
f 38/38 42/42 37/37
f 38/38 43/43 42/42
f 38/38 44/44 43/43
f 40/40 45/45 33/33
f 39/39 44/44 38/38
f 43/43 46/46 42/42
f 45/45 47/47 33/33
f 41/41 48/48 49/49
f 33/33 50/50 41/41
f 41/41 50/50 48/48
f 51/51 46/46 43/43
f 47/47 52/52 33/33
f 44/44 53/53 43/43
f 43/43 53/53 51/51
f 33/33 52/52 50/50
f 53/53 54/54 51/51
f 52/52 55/55 50/50
f 54/54 56/56 51/51
f 50/50 57/57 48/48
f 58/58 59/59 53/53
f 53/53 59/59 54/54
f 50/50 60/60 57/57
f 59/59 56/56 54/54
f 61/61 59/59 58/58
f 55/55 62/62 50/50
f 62/62 63/63 50/50
f 50/50 63/63 60/60
f 60/60 64/64 57/57
f 62/62 65/65 63/63
f 65/65 66/66 63/63
f 59/59 61/61 56/56
f 61/61 67/67 56/56
f 56/56 68/68 69/69
f 69/69 68/68 70/70
f 63/63 71/71 60/60
f 66/66 72/72 63/63
f 60/60 73/73 64/64
f 67/67 68/68 56/56
f 74/74 75/75 76/76
f 63/63 72/72 71/71
f 71/71 77/77 60/60
f 60/60 78/78 73/73
f 67/67 79/79 68/68
f 68/68 80/80 70/70
f 79/79 80/80 68/68
f 60/60 81/81 78/78
f 79/79 82/82 80/80
f 82/82 83/83 80/80
f 77/77 84/84 60/60
f 60/60 84/84 81/81
f 79/79 85/85 82/82
f 81/81 86/86 78/78
f 82/82 87/87 83/83
f 81/81 88/88 86/86
f 85/85 87/87 82/82
f 85/85 89/89 87/87
f 85/85 90/90 89/89
f 81/81 91/91 88/88
f 90/90 92/92 89/89
f 89/89 92/92 93/93
f 88/88 91/91 94/94
f 95/95 96/96 91/91
f 91/91 97/97 94/94
f 96/96 98/98 91/91
f 92/92 99/99 93/93
f 94/94 97/97 100/100
f 93/93 99/99 101/101
f 98/98 97/97 91/91
f 97/97 102/102 100/100
f 103/103 104/104 101/101
f 99/99 103/103 101/101
f 98/98 105/105 97/97
f 106/106 104/104 103/103
f 103/103 107/107 106/106
f 106/106 108/108 104/104
f 109/109 106/106 107/107
f 105/105 110/110 97/97
f 102/102 111/111 112/112
f 112/112 111/111 113/113
f 112/112 113/113 114/114
f 115/115 116/116 117/117
f 115/115 118/118 116/116
f 102/102 97/97 111/111
f 97/97 119/119 111/111
f 97/97 110/110 119/119
f 119/119 120/120 111/111
f 121/121 122/122 123/123
f 123/123 122/122 124/124
f 125/125 126/126 127/127
f 127/127 126/126 128/128
f 129/129 121/121 123/123
f 130/130 129/129 123/123
f 131/131 132/132 133/133
f 134/134 135/135 136/136
f 137/137 138/138 139/139
f 137/137 140/140 138/138
f 139/139 138/138 141/141
f 142/142 130/130 143/143
f 142/142 129/129 130/130
f 144/144 145/145 131/131
f 138/138 146/146 141/141
f 147/147 142/142 148/148
f 143/143 130/130 149/149
f 142/142 143/143 148/148
f 150/150 151/151 152/152
f 150/150 152/152 153/153
f 145/145 154/154 131/131
f 154/154 132/132 131/131
f 155/155 156/156 157/157
f 148/148 143/143 149/149
f 151/151 158/158 152/152
f 145/145 159/159 154/154
f 154/154 160/160 132/132
f 161/161 147/147 148/148
f 148/148 149/149 162/162
f 163/163 164/164 151/151
f 134/134 165/165 135/135
f 161/161 148/148 166/166
f 158/158 167/167 152/152
f 167/167 168/168 152/152
f 152/152 168/168 169/169
f 170/170 165/165 134/134
f 135/135 165/165 171/171
f 138/138 172/172 146/146
f 173/173 148/148 162/162
f 166/166 148/148 173/173
f 164/164 158/158 151/151
f 154/154 159/159 160/160
f 140/140 174/174 138/138
f 166/166 173/173 175/175
f 158/158 176/176 167/167
f 175/175 173/173 177/177
f 178/178 175/175 177/177
f 179/179 180/180 181/181
f 181/181 180/180 164/164
f 180/180 158/158 164/164
f 140/140 182/182 174/174
f 138/138 174/174 172/172
f 178/178 177/177 183/183
f 184/184 185/185 179/179
f 186/186 187/187 158/158
f 171/171 188/188 135/135
f 179/179 189/189 180/180
f 190/190 191/191 192/192
f 193/193 186/186 180/180
f 180/180 186/186 158/158
f 182/182 194/194 174/174
f 182/182 195/195 194/194
f 179/179 196/196 189/189
f 195/195 197/197 194/194
f 188/188 198/198 199/199
f 197/197 200/200 194/194
f 201/201 202/202 203/203
f 204/204 205/205 206/206
f 204/204 206/206 207/207
f 171/171 208/208 188/188
f 188/188 208/208 198/198
f 205/205 209/209 206/206
f 210/210 198/198 208/208
f 197/197 211/211 200/200
f 205/205 212/212 209/209
f 198/198 213/213 214/214
f 211/211 215/215 200/200
f 210/210 216/216 198/198
f 217/217 218/218 215/215
f 211/211 217/217 215/215
f 198/198 216/216 213/213
f 185/185 219/219 179/179
f 212/212 220/220 209/209
f 216/216 221/221 213/213
f 179/179 219/219 196/196
f 222/222 223/223 224/224
f 224/224 223/223 225/225
f 224/224 225/225 226/226
f 226/226 225/225 227/227
f 227/227 225/225 228/228
f 221/221 229/229 213/213
f 209/209 220/220 230/230
f 224/224 226/226 231/231
f 232/232 233/233 234/234
f 235/235 232/232 234/234
f 221/221 236/236 229/229
f 237/237 238/238 239/239
f 231/231 240/240 241/241
f 220/220 242/242 230/230
f 230/230 242/242 243/243
f 196/196 219/219 244/244
f 196/196 244/244 245/245
f 245/245 244/244 246/246
f 247/247 248/248 249/249
f 247/247 249/249 250/250
f 249/249 248/248 251/251
f 241/241 240/240 252/252
f 246/246 253/253 254/254
f 248/248 255/255 251/251
f 251/251 256/256 249/249
f 257/257 258/258 259/259
f 257/257 236/236 221/221
f 257/257 259/259 236/236
f 253/253 260/260 254/254
f 255/255 261/261 251/251
f 255/255 262/262 261/261
f 251/251 261/261 256/256
f 219/219 263/263 244/244
f 246/246 244/244 253/253
f 262/262 264/264 265/265
f 262/262 265/265 261/261
f 260/260 266/266 267/267
f 264/264 268/268 265/265
f 265/265 268/268 269/269
f 265/265 269/269 270/270
f 241/241 252/252 271/271
f 272/272 273/273 258/258
f 258/258 273/273 259/259
f 260/260 274/274 266/266
f 268/268 275/275 269/269
f 269/269 276/276 270/270
f 277/277 271/271 278/278
f 273/273 279/279 259/259
f 280/280 281/281 282/282
f 253/253 244/244 283/283
f 253/253 274/274 260/260
f 269/269 275/275 284/284
f 269/269 284/284 276/276
f 285/285 284/284 275/275
f 277/277 278/278 286/286
f 287/287 273/273 272/272
f 288/288 289/289 290/290
f 253/253 283/283 291/291
f 292/292 293/293 294/294
f 294/294 293/293 295/295
f 285/285 296/296 284/284
f 297/297 298/298 299/299
f 299/299 298/298 300/300
f 301/301 277/277 302/302
f 302/302 277/277 286/286
f 287/287 303/303 273/273
f 273/273 304/304 279/279
f 253/253 291/291 274/274
f 266/266 274/274 292/292
f 292/292 305/305 293/293
f 306/306 302/302 307/307
f 306/306 301/301 302/302
f 302/302 286/286 307/307
f 274/274 305/305 292/292
f 293/293 305/305 308/308
f 309/309 310/310 303/303
f 310/310 304/304 273/273
f 298/298 311/311 312/312
f 303/303 310/310 273/273
f 313/313 314/314 315/315
f 274/274 316/316 305/305
f 309/309 317/317 310/310
f 305/305 318/318 308/308
f 317/317 319/319 310/310
f 314/314 320/320 315/315
f 311/311 321/321 312/312
f 316/316 322/322 305/305
f 323/323 320/320 314/314
f 322/322 318/318 305/305
f 321/321 324/324 325/325
f 326/326 327/327 328/328
f 327/327 329/329 328/328
f 330/330 331/331 332/332
f 327/327 333/333 329/329
f 333/333 334/334 329/329
f 330/330 332/332 335/335
f 336/336 337/337 338/338
f 333/333 339/339 334/334
f 340/340 330/330 335/335
f 339/339 341/341 334/334
f 337/337 342/342 338/338
f 340/340 335/335 343/343
f 343/343 335/335 344/344
f 342/342 345/345 346/346
f 343/343 344/344 347/347
f 337/337 348/348 345/345
f 337/337 345/345 342/342
f 337/337 349/349 348/348
f 350/350 351/351 352/352
f 353/353 349/349 337/337
f 354/354 343/343 355/355
f 355/355 343/343 356/356
f 355/355 357/357 354/354
f 349/349 358/358 348/348
f 355/355 356/356 359/359
f 360/360 361/361 351/351
f 349/349 362/362 358/358
f 357/357 355/355 359/359
f 349/349 363/363 362/362
f 364/364 365/365 366/366
f 367/367 368/368 349/349
f 369/369 368/368 367/367
f 368/368 363/363 349/349
f 366/366 370/370 371/371
f 368/368 372/372 363/363
f 371/371 370/370 373/373
f 374/374 368/368 369/369
f 375/375 376/376 377/377
f 378/378 371/371 373/373
f 375/375 379/379 376/376
f 378/378 373/373 380/380
f 380/380 373/373 381/381
f 382/382 368/368 374/374
f 382/382 383/383 368/368
f 384/384 378/378 380/380
f 385/385 380/380 381/381
f 379/379 386/386 376/376
f 387/387 384/384 388/388
f 388/388 384/384 385/385
f 388/388 385/385 389/389
f 372/372 368/368 383/383
f 387/387 388/388 389/389
f 382/382 390/390 391/391
f 391/391 383/383 382/382
f 392/392 393/393 394/394
f 394/394 393/393 390/390
f 390/390 395/395 391/391
f 396/396 397/397 386/386
f 397/397 398/398 386/386
f 393/393 399/399 390/390
f 397/397 400/400 398/398
f 399/399 401/401 395/395
f 390/390 399/399 395/395
f 402/402 403/403 404/404
f 404/404 403/403 405/405
f 404/404 405/405 406/406
f 407/407 408/408 399/399
f 408/408 401/401 399/399
f 397/397 409/409 400/400
f 410/410 404/404 411/411
f 404/404 406/406 411/411
f 412/412 408/408 407/407
f 408/408 413/413 401/401
f 397/397 414/414 409/409
f 412/412 415/415 408/408
f 416/416 411/411 417/417
f 416/416 410/410 411/411
f 418/418 416/416 419/419
f 415/415 420/420 408/408
f 419/419 416/416 421/421
f 421/421 416/416 417/417
f 422/422 423/423 415/415
f 415/415 423/423 420/420
f 424/424 419/419 425/425
f 425/425 421/421 426/426
f 427/427 424/424 425/425
f 423/423 428/428 420/420
f 429/429 425/425 426/426
f 423/423 430/430 428/428
f 431/431 429/429 432/432
f 433/433 430/430 423/423
f 434/434 435/435 436/436
f 437/437 433/433 423/423
f 438/438 433/433 437/437
f 439/439 431/431 440/440
f 440/440 431/431 432/432
f 441/441 439/439 440/440
f 435/435 442/442 443/443
f 438/438 444/444 433/433
f 445/445 444/444 438/438
f 438/438 446/446 445/445
f 435/435 447/447 442/442
f 448/448 447/447 435/435
f 449/449 440/440 450/450
f 451/451 452/452 453/453
f 453/453 452/452 445/445
f 453/453 445/445 446/446
f 454/454 7/7 19/19
f 19/19 9/9 455/455
f 456/456 13/13 12/12
f 454/454 19/19 455/455
f 457/457 456/456 12/12
f 458/458 459/459 460/460
f 457/457 12/12 461/461
f 462/462 458/458 460/460
f 457/457 461/461 463/463
f 464/464 458/458 462/462
f 462/462 460/460 465/465
f 466/466 462/462 465/465
f 457/457 463/463 467/467
f 463/463 468/468 467/467
f 469/469 462/462 466/466
f 470/470 457/457 467/467
f 464/464 462/462 469/469
f 467/467 468/468 471/471
f 464/464 469/469 472/472
f 473/473 470/470 474/474
f 474/474 470/470 467/467
f 467/467 471/471 475/475
f 472/472 469/469 476/476
f 476/476 469/469 466/466
f 467/467 475/475 474/474
f 474/474 475/475 477/477
f 478/478 472/472 476/476
f 478/478 476/476 479/479
f 480/480 472/472 478/478
f 477/477 475/475 481/481
f 482/482 480/480 478/478
f 478/478 479/479 483/483
f 484/484 474/474 477/477
f 478/478 483/483 482/482
f 485/485 482/482 483/483
f 486/486 482/482 485/485
f 485/485 483/483 487/487
f 488/488 477/477 481/481
f 488/488 481/481 489/489
f 485/485 487/487 490/490
f 491/491 486/486 492/492
f 492/492 486/486 485/485
f 492/492 485/485 490/490
f 493/493 488/488 489/489
f 494/494 491/491 492/492
f 495/495 490/490 496/496
f 489/489 497/497 498/498
f 492/492 490/490 495/495
f 494/494 492/492 495/495
f 499/499 495/495 496/496
f 489/489 498/498 500/500
f 491/491 494/494 501/501
f 494/494 495/495 499/499
f 502/502 493/493 489/489
f 501/501 494/494 499/499
f 499/499 496/496 503/503
f 502/502 489/489 500/500
f 504/504 501/501 499/499
f 504/504 499/499 503/503
f 505/505 506/506 507/507
f 508/508 505/505 507/507
f 508/508 507/507 76/76
f 509/509 508/508 75/75
f 75/75 508/508 76/76
f 502/502 500/500 510/510
f 511/511 512/512 510/510
f 510/510 512/512 502/502
f 500/500 498/498 513/513
f 509/509 75/75 74/74
f 514/514 500/500 513/513
f 510/510 500/500 515/515
f 516/516 500/500 514/514
f 517/517 518/518 519/519
f 517/517 519/519 520/520
f 520/520 519/519 521/521
f 515/515 500/500 516/516
f 522/522 517/517 520/520
f 522/522 520/520 523/523
f 513/513 524/524 525/525
f 514/514 513/513 525/525
f 522/522 523/523 526/526
f 523/523 527/527 526/526
f 528/528 522/522 526/526
f 516/516 514/514 529/529
f 529/529 514/514 530/530
f 531/531 526/526 527/527
f 532/532 528/528 526/526
f 532/532 526/526 531/531
f 530/530 514/514 525/525
f 533/533 528/528 532/532
f 534/534 529/529 530/530
f 535/535 533/533 532/532
f 534/534 530/530 536/536
f 532/532 531/531 537/537
f 535/535 532/532 538/538
f 534/534 536/536 539/539
f 538/538 532/532 540/540
f 532/532 537/537 540/540
f 540/540 537/537 541/541
f 539/539 536/536 542/542
f 543/543 538/538 540/540
f 544/544 539/539 545/545
f 545/545 539/539 542/542
f 545/545 542/542 546/546
f 540/540 541/541 547/547
f 548/548 544/544 545/545
f 543/543 540/540 549/549
f 549/549 540/540 547/547
f 545/545 546/546 550/550
f 549/549 547/547 551/551
f 551/551 547/547 552/552
f 553/553 548/548 545/545
f 553/553 545/545 554/554
f 545/545 550/550 554/554
f 551/551 552/552 555/555
f 555/555 552/552 556/556
f 554/554 557/557 558/558
f 559/559 118/118 115/115
f 553/553 554/554 558/558
f 118/118 127/127 116/116
f 560/560 553/553 558/558
f 118/118 125/125 127/127
f 555/555 556/556 561/561
f 562/562 555/555 561/561
f 563/563 560/560 558/558
f 156/156 564/564 565/565
f 565/565 566/566 567/567
f 123/123 124/124 568/568
f 157/157 156/156 565/565
f 157/157 565/565 567/567
f 562/562 561/561 569/569
f 569/569 561/561 570/570
f 571/571 572/572 573/573
f 574/574 575/575 576/576
f 576/576 575/575 577/577
f 578/578 572/572 571/571
f 579/579 157/157 567/567
f 155/155 157/157 579/579
f 580/580 578/578 581/581
f 582/582 576/576 583/583
f 583/583 576/576 577/577
f 584/584 577/577 585/585
f 581/581 578/578 571/571
f 583/583 577/577 584/584
f 586/586 584/584 585/585
f 586/586 585/585 587/587
f 582/582 583/583 588/588
f 589/589 590/590 591/591
f 591/591 590/590 592/592
f 571/571 573/573 593/593
f 594/594 582/582 588/588
f 595/595 596/596 597/597
f 596/596 598/598 597/597
f 591/591 592/592 599/599
f 600/600 594/594 601/601
f 601/601 594/594 588/588
f 588/588 583/583 602/602
f 596/596 603/603 598/598
f 190/190 192/192 596/596
f 596/596 192/192 603/603
f 604/604 190/190 596/596
f 591/591 599/599 605/605
f 589/589 591/591 606/606
f 571/571 593/593 607/607
f 608/608 609/609 610/610
f 611/611 612/612 601/601
f 601/601 612/612 600/600
f 601/601 588/588 613/613
f 613/613 588/588 614/614
f 606/606 591/591 605/605
f 190/190 615/615 191/191
f 176/176 158/158 187/187
f 615/615 616/616 191/191
f 617/617 589/589 606/606
f 618/618 606/606 605/605
f 172/172 174/174 194/194
f 619/619 601/601 613/613
f 620/620 621/621 615/615
f 615/615 621/621 616/616
f 617/617 606/606 618/618
f 607/607 593/593 622/622
f 623/623 621/621 620/620
f 618/618 605/605 624/624
f 621/621 623/623 625/625
f 626/626 617/617 618/618
f 593/593 627/627 622/622
f 622/622 627/627 628/628
f 601/601 619/619 629/629
f 630/630 601/601 629/629
f 623/623 201/201 203/203
f 625/625 203/203 631/631
f 623/623 203/203 625/625
f 608/608 610/610 632/632
f 626/626 618/618 633/633
f 618/618 624/624 634/634
f 633/633 618/618 634/634
f 622/622 628/628 635/635
f 611/611 601/601 636/636
f 626/626 633/633 637/637
f 635/635 628/628 638/638
f 639/639 611/611 636/636
f 633/633 634/634 640/640
f 640/640 634/634 641/641
f 642/642 622/622 635/635
f 637/637 633/633 643/643
f 643/643 633/633 641/641
f 641/641 633/633 640/640
f 636/636 601/601 630/630
f 644/644 637/637 643/643
f 1/1 643/643 5/5
f 643/643 641/641 5/5
f 645/645 637/637 644/644
f 644/644 643/643 1/1
f 645/645 644/644 646/646
f 646/646 644/644 3/3
f 646/646 3/3 2/2
f 3/3 644/644 1/1
f 4/4 6/6 647/647
f 6/6 5/5 641/641
f 6/6 641/641 647/647
f 648/648 642/642 635/635
f 635/635 638/638 649/649
f 649/649 638/638 650/650
f 223/223 651/651 225/225
f 652/652 648/648 635/635
f 632/632 610/610 653/653
f 636/636 630/630 654/654
f 655/655 237/237 656/656
f 652/652 635/635 649/649
f 239/239 656/656 237/237
f 657/657 652/652 649/649
f 636/636 654/654 658/658
f 240/240 231/231 226/226
f 659/659 660/660 661/661
f 657/657 649/649 662/662
f 663/663 657/657 662/662
f 238/238 664/664 239/239
f 665/665 666/666 657/657
f 667/667 665/665 657/657
f 238/238 280/280 664/664
f 668/668 639/639 636/636
f 636/636 658/658 669/669
f 670/670 632/632 653/653
f 669/669 671/671 672/672
f 670/670 653/653 673/673
f 636/636 669/669 672/672
f 238/238 281/281 280/280
f 278/278 271/271 252/252
f 667/667 657/657 674/674
f 675/675 657/657 663/663
f 674/674 657/657 675/675
f 676/676 677/677 290/290
f 636/636 672/672 678/678
f 290/290 677/677 288/288
f 679/679 676/676 290/290
f 289/289 288/288 680/680
f 672/672 671/671 681/681
f 672/672 681/681 682/682
f 672/672 682/682 683/683
f 683/683 682/682 684/684
f 685/685 686/686 687/687
f 688/688 667/667 674/674
f 313/313 282/282 281/281
f 689/689 688/688 674/674
f 690/690 679/679 290/290
f 690/690 290/290 289/289
f 678/678 672/672 691/691
f 691/691 672/672 692/692
f 672/672 683/683 692/692
f 686/686 693/693 687/687
f 313/313 315/315 282/282
f 694/694 695/695 696/696
f 690/690 289/289 697/697
f 698/698 690/690 697/697
f 297/297 311/311 298/298
f 298/298 312/312 300/300
f 699/699 689/689 674/674
f 684/684 685/685 700/700
f 700/700 685/685 687/687
f 699/699 701/701 689/689
f 702/702 698/698 697/697
f 702/702 697/697 703/703
f 704/704 683/683 700/700
f 683/683 684/684 700/700
f 705/705 706/706 707/707
f 707/707 706/706 708/708
f 709/709 702/702 703/703
f 700/700 687/687 710/710
f 709/709 703/703 711/711
f 312/312 321/321 325/325
f 699/699 674/674 712/712
f 713/713 709/709 711/711
f 714/714 700/700 710/710
f 715/715 321/321 311/311
f 709/709 713/713 716/716
f 716/716 713/713 717/717
f 718/718 709/709 716/716
f 719/719 331/331 330/330
f 720/720 708/708 721/721
f 718/718 716/716 722/722
f 722/722 716/716 723/723
f 716/716 717/717 723/723
f 724/724 718/718 722/722
f 725/725 726/726 727/727
f 720/720 707/707 708/708
f 699/699 712/712 728/728
f 729/729 320/320 323/323
f 340/340 719/719 330/330
f 730/730 727/727 731/731
f 732/732 720/720 721/721
f 733/733 725/725 730/730
f 725/725 727/727 730/730
f 734/734 733/733 730/730
f 730/730 731/731 735/735
f 736/736 730/730 735/735
f 354/354 340/340 343/343
f 737/737 738/738 350/350
f 737/737 350/350 739/739
f 740/740 734/734 730/730
f 741/741 730/730 736/736
f 742/742 740/740 730/730
f 742/742 730/730 741/741
f 738/738 351/351 350/350
f 343/343 347/347 356/356
f 743/743 740/740 742/742
f 744/744 743/743 742/742
f 351/351 361/361 352/352
f 745/745 744/744 742/742
f 745/745 742/742 746/746
f 360/360 747/747 361/361
f 357/357 359/359 365/365
f 364/364 357/357 365/365
f 748/748 749/749 744/744
f 744/744 745/745 748/748
f 750/750 745/745 746/746
f 360/360 751/751 747/747
f 751/751 377/377 747/747
f 366/366 365/365 370/370
f 748/748 745/745 750/750
f 375/375 377/377 751/751
f 752/752 749/749 748/748
f 753/753 749/749 752/752
f 754/754 753/753 752/752
f 755/755 754/754 752/752
f 384/384 380/380 385/385
f 752/752 748/748 756/756
f 757/757 755/755 752/752
f 387/387 389/389 758/758
f 757/757 752/752 759/759
f 379/379 396/396 386/386
f 760/760 758/758 761/761
f 758/758 389/389 761/761
f 761/761 389/389 762/762
f 759/759 752/752 756/756
f 760/760 761/761 763/763
f 764/764 765/765 757/757
f 763/763 761/761 762/762
f 763/763 762/762 766/766
f 762/762 389/389 767/767
f 764/764 757/757 759/759
f 396/396 768/768 397/397
f 402/402 760/760 763/763
f 766/766 762/762 767/767
f 402/402 763/763 403/403
f 403/403 763/763 769/769
f 763/763 766/766 769/769
f 769/769 766/766 767/767
f 770/770 764/764 759/759
f 409/409 398/398 400/400
f 768/768 771/771 397/397
f 403/403 769/769 405/405
f 405/405 769/769 767/767
f 772/772 764/764 770/770
f 771/771 414/414 397/397
f 770/770 773/773 772/772
f 418/418 410/410 416/416
f 774/774 773/773 770/770
f 775/775 774/774 770/770
f 775/775 776/776 774/774
f 414/414 777/777 409/409
f 777/777 778/778 409/409
f 779/779 778/778 777/777
f 419/419 421/421 425/425
f 780/780 781/781 776/776
f 409/409 778/778 782/782
f 776/776 775/775 780/780
f 779/779 783/783 778/778
f 782/782 778/778 784/784
f 785/785 781/781 786/786
f 786/786 781/781 780/780
f 787/787 778/778 783/783
f 778/778 787/787 784/784
f 427/427 425/425 429/429
f 783/783 434/434 787/787
f 786/786 780/780 788/788
f 787/787 436/436 784/784
f 787/787 434/434 436/436
f 427/427 429/429 431/431
f 789/789 785/785 786/786
f 786/786 788/788 790/790
f 439/439 427/427 431/431
f 791/791 435/435 434/434
f 792/792 789/789 786/786
f 792/792 786/786 790/790
f 436/436 435/435 443/443
f 793/793 789/789 792/792
f 794/794 792/792 790/790
f 791/791 448/448 435/435
f 440/440 432/432 795/795
f 796/796 793/793 792/792
f 449/449 441/441 440/440
f 450/450 440/440 795/795
f 442/442 447/447 797/797
f 796/796 792/792 798/798
f 798/798 792/792 799/799
f 800/800 796/796 798/798
f 447/447 801/801 802/802
f 447/447 802/802 797/797
f 803/803 804/804 805/805
f 803/803 805/805 806/806
f 807/807 800/800 798/798
f 804/804 803/803 808/808
f 809/809 807/807 798/798
f 809/809 798/798 810/810
f 802/802 801/801 811/811
f 808/808 803/803 812/812
f 812/812 803/803 813/813
f 803/803 806/806 813/813
f 801/801 814/814 811/811
f 815/815 808/808 812/812
f 815/815 812/812 813/813
f 815/815 813/813 816/816
f 452/452 451/451 817/817
f 815/815 816/816 818/818
f 816/816 813/813 818/818
f 819/819 815/815 820/820
f 815/815 818/818 820/820
f 801/801 821/821 814/814
f 814/814 822/822 811/811
# Vertices: 822, normals: 0, texture coordinates: 822, faces: 840

